HIERARCHY
ROOT Hips
{
	OFFSET 0.00000 0.00000 0.00000
	CHANNELS 6 Xposition Yposition Zposition Zrotation Yrotation Xrotation 
	JOINT LHipJoint
	{
		OFFSET 0 0 0
		CHANNELS 3 Zrotation Yrotation Xrotation
		JOINT LeftHip
		{
			OFFSET 1.78158 -1.79992 1.25746
			CHANNELS 3 Zrotation Yrotation Xrotation
			JOINT LeftKnee
			{
				OFFSET 2.48433 -6.82566 0.00000
				CHANNELS 3 Zrotation Yrotation Xrotation
				JOINT LeftAnkle
				{
					OFFSET 2.69722 -7.41057 0.00000
					CHANNELS 3 Zrotation Yrotation Xrotation
					JOINT LeftToe
					{
						OFFSET 0.10733 -0.29489 1.75071
						CHANNELS 3 Zrotation Yrotation Xrotation
						End Site
						{
							OFFSET 0.00000 -0.00000 0.90224
						}
					}
				}
			}
		}
	}
	JOINT RHipJoint
	{
		OFFSET 0 0 0
		CHANNELS 3 Zrotation Yrotation Xrotation
		JOINT RightHip
		{
			OFFSET -1.91234 -1.79993 1.25746
			CHANNELS 3 Zrotation Yrotation Xrotation
			JOINT RightKnee
			{
				OFFSET -2.33122 -6.40498 0.00000
				CHANNELS 3 Zrotation Yrotation Xrotation
				JOINT RightAnkle
				{
					OFFSET -2.75667 -7.57390 0.00000
					CHANNELS 3 Zrotation Yrotation Xrotation
					JOINT RightToe
					{
						OFFSET -0.15946 -0.43811 1.78925
						CHANNELS 3 Zrotation Yrotation Xrotation
						End Site
						{
							OFFSET -0.00000 -0.00000 0.93158
						}
					}
				}
			}
		}
	}
	JOINT lowerback
	{
		OFFSET 0 0 0
		CHANNELS 3 Zrotation Yrotation Xrotation
		JOINT Chest
		{
			OFFSET -0.02267 2.03993 -0.26238
			CHANNELS 3 Zrotation Yrotation Xrotation
			JOINT Chest2
			{
				OFFSET 0.02263 2.06220 -0.00892
				CHANNELS 3 Zrotation Yrotation Xrotation
				JOINT lowerneck
				{
					OFFSET 0 0 0
					CHANNELS 3 Zrotation Yrotation Xrotation
					JOINT Neck
					{
						OFFSET -0.06177 1.95978 0.28606
						CHANNELS 3 Zrotation Yrotation Xrotation
						JOINT Head
						{
							OFFSET 0.08482 1.96576 -0.43252
							CHANNELS 3 Zrotation Yrotation Xrotation
							End Site
							{
								OFFSET 0.02787 2.02739 -0.18071
							}
						}
					}
				}
				JOINT LeftCollar
				{
					OFFSET 0 0 0
					CHANNELS 3 Zrotation Yrotation Xrotation
					JOINT LeftShoulder
					{
						OFFSET 3.80978 1.64906 0.29973
CHANNELS 3 Zrotation Xrotation Yrotation
						JOINT LeftElbow
						{
OFFSET 0 -4.930420 0.000000
CHANNELS 3 Zrotation Xrotation Yrotation
							JOINT LeftWrist
							{
OFFSET 0 -3.681770 0.000000
CHANNELS 3 Zrotation Xrotation Yrotation
								JOINT lhand
								{
									OFFSET 0 0 0
CHANNELS 3 Zrotation Xrotation Yrotation
									JOINT LFingers
									{
OFFSET 0 -0.721480 0.000000
CHANNELS 3 Zrotation Xrotation Yrotation
										End Site
										{
OFFSET 0 -0.581680 0.000000
										}
									}
								}
								JOINT LThumb
								{
OFFSET 0 0.000000 0.000000
CHANNELS 3 Zrotation Xrotation Yrotation
									End Site
									{
OFFSET 0 -0.590560 0.590560
									}
								}
							}
						}
					}
				}
				JOINT RightCollar
				{
					OFFSET 0 0 0
					CHANNELS 3 Zrotation Yrotation Xrotation
					JOINT RightShoulder
					{
						OFFSET -3.49270 1.85636 0.09297
CHANNELS 3 Zrotation Xrotation Yrotation
						JOINT RightElbow
						{
OFFSET 0 -5.079050 -0.000000
CHANNELS 3 Zrotation Xrotation Yrotation
							JOINT RightWrist
							{
OFFSET 0 -3.543940 0.000000
CHANNELS 3 Zrotation Xrotation Yrotation
								JOINT rhand
								{
									OFFSET 0 0 0
CHANNELS 3 Zrotation Xrotation Yrotation
									JOINT RFingers
									{
OFFSET 0 -0.681160 0.000000
CHANNELS 3 Zrotation Xrotation Yrotation
										End Site
										{
OFFSET 0 -0.549170 0.000000
										}
									}
								}
								JOINT RThumb
								{
OFFSET 0 0.000000 0.000000
CHANNELS 3 Zrotation Xrotation Yrotation
									End Site
									{
OFFSET 0 -0.557550 0.557550
									}
								}
							}
						}
					}
				}
			}
		}
	}
}
MOTION
Frames: 8
Frame Time: 0.008333333333333333
-10.344300 18.014500 -16.448600 -169.453000 86.262700 -165.556000 0.000000 0.000000 0.000000 -15.112800 -23.960000 -0.408400 1.275000 7.156400 20.179600 1.327600 11.659300 -28.782800 2.656300 -10.116800 -29.355700 0.000000 0.000000 0.000000 16.093100 -11.451400 2.381400 0.000000 -0.000000 0.000000 -0.177400 -6.203600 -12.548600 -0.003800 -0.396600 1.089700 -0.668400 -0.325200 5.395500 1.736300 -0.374400 -2.703800 2.221000 -0.114900 -5.824100 -6.453600 -5.294500 -21.008200 4.780900 -6.483500 32.012800 1.923500 -2.633700 15.081100 -0.000000 -0.000000 0.000000 -3.126900 4.870800 -20.694000 13.653300 -22.236900 2.695500 36.137300 -13.009900 -6.715200 0.000000 0.000000 0.000000 -7.125000 0.000000 0.000000 8.056700 38.160100 1.367500 -0.000000 -0.000000 0.000000 -5.685900 4.056200 7.321300 -13.044400 -21.352200 -2.469400 -19.154500 34.429200 10.478100 0.000000 0.000000 0.000000 7.125000 0.000000 -0.000000 6.997500 40.957700 0.701400
-10.343538 18.014777 -16.456082 -169.607499 86.249744 -165.709114 0.000000 0.000000 0.000000 -15.154993 -23.956397 -0.360942 1.264538 7.127994 20.095145 1.310141 11.741469 -28.730631 2.699601 -10.191971 -29.600820 0.000000 0.000000 0.000000 16.047166 -11.473155 2.397473 0.000000 0.000000 0.000000 -0.185575 -6.126212 -12.607351 -0.012876 -0.703936 1.934596 -0.672695 -0.331990 5.386563 1.748771 -0.383060 -2.704770 2.237212 -0.118711 -5.819597 -6.469673 -5.293876 -20.991018 4.787690 -6.479482 32.000676 1.929943 -2.633423 15.072370 0.000000 0.000000 0.000000 -3.071751 4.819531 -20.341008 13.572378 -22.120090 2.665016 36.064831 -12.928078 -6.818500 0.000000 0.000000 0.000000 -7.125000 0.000000 0.000000 8.000166 38.280166 1.334106 0.000000 0.000000 0.000000 -5.538675 3.874057 6.399570 -12.921563 -21.172066 -2.424990 -18.913260 35.294534 10.077234 0.000000 0.000000 0.000000 7.125000 0.000000 0.000000 7.141538 40.518036 0.794515
-10.342930 18.014939 -16.463642 -169.813289 86.246198 -165.907347 0.000000 0.000000 0.000000 -15.205863 -23.977283 -0.313214 1.255311 7.102944 20.020678 1.296230 11.830463 -28.709043 2.729637 -10.243965 -29.770470 0.000000 0.000000 0.000000 15.997453 -11.484458 2.408109 0.000000 0.000000 0.000000 -0.193365 -6.055148 -12.666565 -0.025346 -1.006335 2.766379 -0.683817 -0.337969 5.375851 1.758619 -0.391296 -2.705933 2.254465 -0.122097 -5.814245 -6.495195 -5.294024 -20.985290 4.801999 -6.475270 31.996264 1.941130 -2.632914 15.070582 0.000000 0.000000 0.000000 -3.012785 4.771810 -19.999006 13.495969 -22.009605 2.636306 35.964133 -12.837463 -6.910770 0.000000 0.000000 0.000000 -7.125000 0.000000 0.000000 7.918256 38.384343 1.299902 0.000000 0.000000 0.000000 -5.445518 3.759093 5.852609 -12.841532 -21.054561 -2.396083 -18.727706 35.822893 9.778100 0.000000 0.000000 0.000000 7.125000 0.000000 0.000000 7.253837 40.189938 0.865649
-10.342508 18.014984 -16.471247 -170.061738 86.252038 -166.142541 0.000000 0.000000 0.000000 -15.264279 -24.021174 -0.265364 1.247278 7.081115 19.955815 1.285992 11.924236 -28.717102 2.745825 -10.271848 -29.861535 0.000000 0.000000 0.000000 15.944752 -11.485138 2.413221 0.000000 0.000000 0.000000 -0.200706 -5.990904 -12.725489 -0.040911 -1.301060 3.577550 -0.700815 -0.342833 5.363821 1.765476 -0.398661 -2.707359 2.271810 -0.124894 -5.808414 -6.529004 -5.295061 -20.990827 4.823790 -6.471486 31.999377 1.956738 -2.632300 15.075603 0.000000 0.000000 0.000000 -2.949710 4.727818 -19.667140 13.424315 -21.905806 2.609464 35.838783 -12.737216 -6.992066 0.000000 0.000000 0.000000 -7.125000 0.000000 0.000000 7.814094 38.473001 1.265344 0.000000 0.000000 0.000000 -5.403666 3.709645 5.669437 -12.802809 -20.997558 -2.382122 -18.600217 36.023505 9.580753 0.000000 0.000000 0.000000 7.125000 0.000000 0.000000 7.332342 39.973508 0.914149
-10.342577 18.014846 -16.478730 -170.324317 86.272684 -166.385721 0.000000 0.000000 0.000000 -15.327673 -24.092465 -0.218253 1.240904 7.063586 19.903854 1.282389 12.012847 -28.766570 2.736333 -10.255498 -29.807980 0.000000 0.000000 0.000000 15.892237 -11.467818 2.408995 0.000000 0.000000 0.000000 -0.206942 -5.940605 -12.779252 -0.059548 -1.566479 4.309100 -0.721253 -0.344011 5.352528 1.765269 -0.401848 -2.709645 2.283380 -0.125726 -5.804118 -6.568772 -5.298248 -21.013135 4.857253 -6.472248 32.013303 1.977384 -2.632300 15.090637 0.000000 0.000000 0.000000 -2.878280 4.690890 -19.346086 13.361753 -21.814907 2.586185 35.696478 -12.616388 -7.056221 0.000000 0.000000 0.000000 -7.125000 0.000000 0.000000 7.693959 38.539235 1.233058 0.000000 0.000000 0.000000 -5.426321 3.754194 5.997349 -12.820545 -21.023677 -2.388496 -18.580056 35.759540 9.545904 0.000000 0.000000 0.000000 7.125000 0.000000 0.000000 7.344189 39.935611 0.922533
-10.342786 18.014568 -16.485887 -170.532132 86.300524 -166.571816 0.000000 0.000000 0.000000 -15.385404 -24.167841 -0.180376 1.236572 7.051674 19.868507 1.283892 12.081178 -28.834369 2.711248 -10.212182 -29.666616 0.000000 0.000000 0.000000 15.845336 -11.440194 2.399014 0.000000 0.000000 0.000000 -0.212063 -5.901584 -12.825960 -0.078277 -1.798298 4.948757 -0.738535 -0.342033 5.343880 1.760559 -0.400858 -2.712999 2.287989 -0.124701 -5.802654 -6.604873 -5.303059 -21.041060 4.893872 -6.477791 32.031266 1.997752 -2.633228 15.109152 0.000000 0.000000 0.000000 -2.802813 4.660785 -19.028467 13.305549 -21.733198 2.565319 35.567864 -12.477320 -7.109609 0.000000 0.000000 0.000000 -7.125000 0.000000 0.000000 7.584916 38.593355 1.205182 0.000000 0.000000 0.000000 -5.465916 3.831369 6.480691 -12.857217 -21.077597 -2.401692 -18.618836 35.352027 9.586194 0.000000 0.000000 0.000000 7.125000 0.000000 0.000000 7.317098 39.980835 0.910959
-10.343078 18.014159 -16.492759 -170.679062 86.332693 -166.696197 0.000000 0.000000 0.000000 -15.435605 -24.238198 -0.153376 1.234000 7.044584 19.847453 1.288915 12.128921 -28.909148 2.677081 -10.152958 -29.473599 0.000000 0.000000 0.000000 15.804170 -11.405767 2.385208 0.000000 0.000000 0.000000 -0.216243 -5.871824 -12.866164 -0.096299 -1.999701 5.504995 -0.752520 -0.337746 5.337604 1.753254 -0.396664 -2.717193 2.287723 -0.122258 -5.803589 -6.635841 -5.309001 -21.070591 4.929960 -6.486740 32.051141 2.016366 -2.634943 15.128927 0.000000 0.000000 0.000000 -2.725748 4.636459 -18.712949 13.253876 -21.658027 2.546192 35.457766 -12.323081 -7.154427 0.000000 0.000000 0.000000 -7.125000 0.000000 0.000000 7.491398 38.638525 1.181706 0.000000 0.000000 0.000000 -5.509073 3.920527 7.007706 -12.899940 -21.140398 -2.417074 -18.691575 34.902710 9.667687 0.000000 0.000000 0.000000 7.125000 0.000000 0.000000 7.267224 40.071808 0.888327
-10.343425 18.013535 -16.499203 -170.710239 86.367542 -166.705896 0.000000 0.000000 0.000000 -15.469623 -24.284548 -0.147972 1.234000 7.044515 19.847245 1.297367 12.140491 -28.976906 2.638144 -10.084785 -29.251965 0.000000 0.000000 0.000000 15.773131 -11.365445 2.368026 0.000000 0.000000 0.000000 -0.219084 -5.854711 -12.896024 -0.111749 -2.153784 5.931011 -0.760557 -0.330887 5.334971 1.744663 -0.388558 -2.722458 2.282527 -0.118102 -5.807953 -6.655448 -5.316067 -21.096156 4.958920 -6.499280 32.070748 2.029460 -2.637784 15.147148 0.000000 0.000000 0.000000 -2.650022 4.620386 -18.398824 13.206972 -21.589715 2.528941 35.387860 -12.147728 -7.188098 0.000000 0.000000 0.000000 -7.125000 0.000000 0.000000 7.432231 38.673512 1.165841 0.000000 0.000000 0.000000 -5.535885 3.995698 7.422290 -12.931464 -21.186748 -2.428436 -18.781088 34.552212 9.763435 0.000000 0.000000 0.000000 7.125000 0.000000 0.000000 7.205077 40.179126 0.861515
